<svg width="90" height="85" viewBox="0 0 90 85" fill="none" xmlns="http://www.w3.org/2000/svg">
<path fill-rule="evenodd" clip-rule="evenodd" d="M48.5027 55.3402H64.0363V81.323C64.0363 82.2701 64.7598 82.8317 65.3609 83.1338C65.9999 83.4549 66.8692 83.684 67.8975 83.8563C69.9751 84.2043 73.0285 84.3704 77.0181 84.3704C81.0077 84.3704 84.0612 84.2043 86.1388 83.8563C87.1671 83.684 88.0364 83.455 88.6754 83.1338C89.2765 82.8317 90 82.2701 90 81.323V3.63506C90 3.00994 89.7074 2.49688 89.3068 2.1141C88.9241 1.74849 88.4168 1.4716 87.861 1.25036C86.7472 0.806944 85.1615 0.480796 83.1665 0.24254L83.1245 0.237521L77.0388 0H77.0181C75.0218 0 72.9872 0.0794732 70.9145 0.238156L70.8921 0.239873L70.8698 0.24254C68.8748 0.480796 67.2891 0.806944 66.1753 1.25036C65.6195 1.4716 65.1122 1.74849 64.7295 2.1141C64.3289 2.49688 64.0363 3.00994 64.0363 3.63506V29.9704H48.5027V5.65427C48.5027 4.39481 48.114 3.33215 47.3367 2.46627C46.5595 1.52168 45.3935 1.04938 43.839 1.04938H16.0898C14.7684 1.04938 13.8357 2.74178 13.2916 6.12657C13.0584 7.7796 12.9418 9.472 12.9418 11.2037C12.9418 12.9355 13.0584 14.6279 13.2916 16.2809C13.8357 19.6657 14.7684 21.3581 16.0898 21.3581H25.4173V51.467C25.2618 56.9771 23.0854 60.3619 18.8881 61.6213L15.2737 62.2117C12.2423 62.2117 9.24971 61.1097 6.29602 58.9056C4.74145 60.0077 3.30347 62.0936 1.98208 65.1636C0.660694 68.1548 0 70.7918 0 73.0745C0 76.7742 1.98208 79.6867 5.94624 81.812C9.9104 83.9373 15.4291 85 22.5024 85C29.6535 85 35.7552 82.9927 40.8075 78.9782C45.9376 74.9637 48.5027 69.0994 48.5027 61.3852V55.3402ZM66.9585 3.19902C67.8096 2.8602 69.1691 2.56052 71.0987 2.32902C73.105 2.17597 75.0712 2.09931 76.9976 2.09877L82.957 2.33136C84.8764 2.56254 86.2296 2.86135 87.0778 3.19902C87.2795 3.27932 87.4374 3.35596 87.5595 3.4255L77.0181 12.2695L66.4768 3.4255C66.5989 3.35596 66.7568 3.27932 66.9585 3.19902ZM87.8912 5.89219L78.0726 14.1299V70.8688L87.8912 79.0719V5.89219ZM66.1451 5.89219L75.9637 14.1299V40.2962H58.4241L50.0232 32.0691H66.1451V5.89219ZM58.4949 42.395H75.9637V70.8688L66.1451 79.0719V53.2415H49.6603L58.4949 42.395ZM66.6395 81.3991L77.0181 72.7281L87.3968 81.3991C87.0278 81.5333 86.5015 81.6673 85.7887 81.7867C83.8904 82.1047 80.9802 82.2716 77.0181 82.2716C73.0561 82.2716 70.1459 82.1047 68.2476 81.7867C67.5348 81.6673 67.0085 81.5333 66.6395 81.3991ZM56.5702 41.4251L48.5027 33.5246V51.3299L56.5702 41.4251Z" fill="black"/>
</svg>
